<?xml version="1.0" encoding="UTF-8"?>
<!DOCTYPE svg PUBLIC "-//W3C//DTD SVG 1.1//EN" "http://www.w3.org/Graphics/SVG/1.1/DTD/svg11.dtd">
<!-- Creator: CorelDRAW 2018 (64-Bit) -->
<svg xmlns="http://www.w3.org/2000/svg" xml:space="preserve" width="20mm" height="20mm" version="1.1" style="shape-rendering:geometricPrecision; text-rendering:geometricPrecision; image-rendering:optimizeQuality; fill-rule:evenodd; clip-rule:evenodd"
viewBox="0 0 2000 2000"
 xmlns:xlink="http://www.w3.org/1999/xlink">
 <defs>
  <style type="text/css">
   <![CDATA[
    .fil0 {fill:#5371FF}
   ]]>
  </style>
 </defs>
 <g id="Layer_x0020_1">
  <metadata id="CorelCorpID_0Corel-Layer"/>
  <g id="_2702262917184">
   <g>
    <path class="fil0" d="M551.99 1130.5c-21,-2.41 -40.7,-13.77 -52.54,-32.56 -7.77,-12.33 -11.05,-26.06 -10.29,-39.44l-343.47 -103.79c-5.7,8.95 -13.64,16.76 -23.57,22.62 -10.84,6.35 -22.74,9.6 -34.58,9.98 -4.17,13.89 -7.84,27.91 -11.03,42.07 -58.43,260.39 64.35,648.57 399.56,542.47 29.74,-9.44 56.02,-23.91 82.8,-38.07 4.37,-16.98 15.4,-32.36 32.1,-42.16 3.37,-1.99 6.86,-3.65 10.39,-5.04l-49.37 -356.08zm387.81 -407.77c0.42,-10.67 3.39,-21.16 8.71,-30.54l-256.3 -231.39c-0.44,0.28 -0.89,0.54 -1.33,0.8 -28.95,17.01 -65.46,11.75 -88.11,-10.75 -202.16,94.33 -374.33,241.69 -467.14,419.18 3.85,3.76 7.34,8.01 10.32,12.73 1.04,1.65 1.98,3.34 2.87,5.04l790.98 -165.07zm522.22 -292.37c-1.73,-5.3 -2.76,-10.73 -3.12,-16.15 -24.25,-11.8 -46.61,-21.35 -66.07,-28.18 -207.82,-73.15 -448.59,-59.5 -667.74,15.54 0.22,11.98 -2.8,23.84 -8.77,34.35l256.32 231.38c0.44,-0.27 0.87,-0.53 1.33,-0.79 26.82,-15.77 60.16,-12.4 82.94,6.1l405.11 -242.25zm-3.56 427.09c12.2,5.54 22.89,14.49 30.43,26.45 5.47,8.67 8.71,18.05 9.88,27.52l363.79 46.07c5.52,-13.34 15.4,-25.15 29.09,-33.19 10.05,-5.9 20.98,-9.12 31.93,-9.86 25.76,-147.56 -182.1,-332.22 -361.78,-443.13 -8.8,4.25 -18.16,6.58 -27.52,7.1l-75.82 379.04zm-379.21 -112.35l291.32 133.79c5.34,-7.02 12.18,-13.19 20.39,-18.01 10.28,-6.05 21.53,-9.29 32.78,-9.92l75.82 -379.04c-6.89,-3.13 -13.32,-7.37 -18.97,-12.62l-403.13 241.08c5.89,14.61 6.26,30.34 1.79,44.72zm-7.93 388.23c12.25,0.97 24.08,5.4 33.86,12.81l257.54 -198.88c-6.34,-13.94 -7.53,-29.1 -4.11,-43.22l-292.97 -134.55c-4.88,5.62 -10.75,10.54 -17.57,14.57 -9.3,5.47 -19.39,8.64 -29.56,9.65l52.81 339.62zm-35.58 7.4c2.35,-1.24 4.74,-2.34 7.17,-3.28l-53.93 -346.74c-15.64,-4.89 -29.61,-15.03 -38.84,-29.67 -1.06,-1.65 -2,-3.33 -2.89,-5.04l-790.97 165.09 -0.04 1.1 343.45 103.78c5.73,-8.93 13.64,-16.75 23.59,-22.59 33.62,-19.76 77.47,-9.45 97.93,23 8.03,12.73 11.25,26.98 10.2,40.79l379.26 98.12c5.54,-10.01 14.03,-18.65 25.07,-24.56zm120.44 320.28l-87.23 -206.23c-23.11,0.96 -45.91,-10.47 -57.88,-31.34 -5.69,-9.97 -8.21,-20.82 -7.84,-31.4l-379.63 -98.2c-5.8,10.82 -14.64,20.29 -26.22,27.09 -3.37,1.98 -6.84,3.65 -10.38,5.04l49.35 356.08c21.02,2.41 40.7,13.77 52.54,32.56 5.73,9.1 9.01,18.96 10.05,28.87 50.02,43.02 55.71,85.4 85.69,106.27 51.86,36.09 197.53,-9.91 250.61,-37.31 34.12,-17.6 65.33,-39.8 94.94,-65.19 -12.28,-31.64 -0.96,-66.65 26.01,-86.24l-0.01 0zm-59.45 -213.77l85.22 201.47c15.36,-4.19 31.21,-3.58 45.61,1.06 104.45,-116.19 208.55,-255.54 384.41,-345.7 69.48,-56.86 168.15,-35.34 231.2,-77.99 7.32,-4.97 14.09,-10.04 20.33,-15.23 -2.91,-6.34 -4.74,-12.92 -5.56,-19.54l-363.77 -46.07c-5.54,13.35 -15.41,25.15 -29.11,33.19 -27.93,16.43 -62.92,12.09 -85.7,-8.47l-256.24 197.86c14.25,28.82 2.95,63.76 -26.39,79.41l0 0.01zm-424.11 356.83c39.42,39.88 32.56,64.72 75.51,94.61 75.54,52.56 236.38,8.32 316.54,-33.04 39.6,-20.44 75.19,-46.18 108.56,-75.36 18.46,7.38 39.85,7.93 59.74,-0.11 39.6,-15.99 58.27,-59.97 41.7,-98.19 -0.45,-1.03 -0.93,-2.05 -1.41,-3.05 104.28,-116.85 205.44,-251.81 374.61,-334.91 49.61,-46.78 155.58,-27.32 231.14,-78.55 12.19,-8.24 23.2,-16.75 33.19,-25.44 17.63,4.04 36.85,1.65 53.56,-8.18 33.62,-19.75 44.29,-62.08 23.82,-94.55 -1.89,-3.02 -4.01,-5.86 -6.3,-8.49 41.01,-174.91 -179.33,-388.58 -383.29,-516.09 3.24,-16.21 0.48,-33.58 -9.1,-48.78 -20.46,-32.46 -64.31,-42.75 -97.93,-23 -3.61,2.12 -6.95,4.51 -10.02,7.12 -24.34,-11.57 -47.45,-21.22 -68.72,-28.71 -224.72,-79.08 -483.72,-63.99 -718.19,18.02 -22.58,-16.02 -53.84,-18.26 -79.25,-3.32 -18.85,11.06 -30.49,29.24 -33.45,48.79 -220.21,101.03 -407.67,261.97 -507.18,457.4 -9.67,1.19 -19.27,4.3 -28.13,9.51 -33.64,19.76 -44.29,62.08 -23.83,94.56 1.77,2.85 3.76,5.52 5.89,8.02 -5.64,17.86 -10.51,35.97 -14.62,54.28 -68.91,307.01 93.09,735.03 480.06,612.52 32.64,-10.32 55.3,-22.16 77.99,-34.4 22.25,25.58 61.1,32.34 91.55,14.46 2.67,-1.57 5.19,-3.28 7.56,-5.11l0 -0.01zm0 0l0 0 0 0z" paint-order="stroke"/>
   </g>
  </g>
 </g>
</svg>
