<?xml version="1.0" encoding="UTF-8" standalone="no"?>
<!-- Creator: CorelDRAW 2018 (64-Bit) -->

<svg
   width="16"
   height="16"
   clip-rule="evenodd"
   fill-rule="evenodd"
   image-rendering="optimizeQuality"
   shape-rendering="geometricPrecision"
   text-rendering="geometricPrecision"
   version="1.1"
   viewBox="0 0 498.34 498.34"
   xml:space="preserve"
   id="svg10"
   sodipodi:docname="favicon-danger1.svg"
   inkscape:version="1.2.2 (732a01da63, 2022-12-09)"
   xmlns:inkscape="http://www.inkscape.org/namespaces/inkscape"
   xmlns:sodipodi="http://sodipodi.sourceforge.net/DTD/sodipodi-0.dtd"
   xmlns="http://www.w3.org/2000/svg"
   xmlns:svg="http://www.w3.org/2000/svg"
   xmlns:rdf="http://www.w3.org/1999/02/22-rdf-syntax-ns#"
   xmlns:cc="http://creativecommons.org/ns#"
   xmlns:dc="http://purl.org/dc/elements/1.1/"><sodipodi:namedview
   id="namedview12"
   pagecolor="#ffffff"
   bordercolor="#000000"
   borderopacity="0.25"
   inkscape:showpageshadow="2"
   inkscape:pageopacity="0.0"
   inkscape:pagecheckerboard="0"
   inkscape:deskcolor="#d1d1d1"
   showgrid="false"
   inkscape:zoom="64.1875"
   inkscape:cx="6.6757546"
   inkscape:cy="7.9922103"
   inkscape:window-width="2560"
   inkscape:window-height="1369"
   inkscape:window-x="-8"
   inkscape:window-y="-8"
   inkscape:window-maximized="1"
   inkscape:current-layer="svg10" /><metadata
   id="metadata2"><rdf:RDF><cc:Work
       rdf:about=""><dc:format>image/svg+xml</dc:format><dc:type
         rdf:resource="http://purl.org/dc/dcmitype/StillImage" /></cc:Work></rdf:RDF></metadata>
 <defs
   id="defs6">
  <style
   type="text/css"
   id="style4">
   <![CDATA[
    .fil1 {fill:#5371FF}
    .fil0 {fill:#999A9B}
    .fil2 {fill:#5371FF;fill-rule:nonzero}
   ]]>
  </style>
 </defs>
 
  
  
  <path
   class="fil1"
   d="m137.53 274.89c-5.2291-0.59866-10.141-3.4331-13.091-8.1124-1.9365-3.0727-2.755-6.4936-2.5596-9.829l-85.59-25.858c-1.4172 2.2297-3.3965 4.1784-5.8766 5.6384-2.694 1.5822-5.6567 2.3946-8.6134 2.4863-1.0385 3.4576-1.9487 6.9518-2.7489 10.483-14.563 64.881 16.036 161.6 99.561 135.17 7.4099-2.3519 13.959-5.9561 20.629-9.4869 1.0874-4.2273 3.8424-8.0636 7.9964-10.507 0.843-0.4948 1.7104-0.9163 2.5901-1.2584l-12.303-88.724zm96.635-101.61c0.10996-2.6634 0.84301-5.2719 2.1747-7.6054l-63.867-57.661c-0.10996 0.0733-0.21992 0.13439-0.32987 0.20159-7.2144 4.2334-16.31 2.9261-21.955-2.6818-50.373 23.507-93.281 60.226-116.4 104.45 0.96519 0.93464 1.8326 1.9915 2.5718 3.1704 0.25657 0.40929 0.49481 0.8369 0.72084 1.2584l197.09-41.136zm130.12-72.853c-0.43372-1.3134-0.69029-2.6695-0.77581-4.0196-6.0477-2.9383-11.613-5.3207-16.463-7.0251-51.79-18.222-111.78-14.82-166.39 3.8791 0.055 2.9872-0.6964 5.9377-2.1808 8.5584l63.867 57.661c0.10996-0.0733 0.21381-0.13439 0.32987-0.20159 6.683-3.9279 14.991-3.091 20.666 1.515l100.94-60.361zm-0.88577 106.42c3.0361 1.3806 5.7056 3.6103 7.581 6.5914 1.3684 2.1564 2.1747 4.496 2.4618 6.854l90.654 11.484c1.3745-3.3293 3.8302-6.2737 7.2511-8.2774 2.5046-1.4661 5.2291-2.2725 7.9536-2.4496 6.4203-36.769-45.376-82.786-90.147-110.42-2.193 1.0629-4.5205 1.6372-6.854 1.7715l-18.894 94.448zm-94.49-27.996 72.59 33.342c1.3317-1.7471 3.0361-3.2865 5.0825-4.4899 2.5596-1.5028 5.3635-2.3152 8.1674-2.474l18.894-94.441c-1.7166-0.78192-3.3232-1.8387-4.7343-3.1521l-100.45 60.074c1.4661 3.6408 1.5577 7.5565 0.44594 11.136zm-1.9792 96.744c3.0544 0.23825 6.0049 1.3378 8.4423 3.1888l64.166-49.554c-1.5761-3.4759-1.8754-7.2511-1.0202-10.77l-73.006-33.525c-1.2156 1.405-2.6756 2.6329-4.3739 3.6286-2.3213 1.3684-4.832 2.1503-7.3733 2.4068l13.158 84.625zm-8.8638 1.8387c0.59255-0.31154 1.1851-0.58033 1.7899-0.81857l-13.439-86.396c-3.8974-1.2218-7.3794-3.7447-9.6824-7.3916-0.25656-0.40929-0.49481-0.8369-0.72083-1.2584l-197.09 41.136-6e-3 0.27489 85.578 25.858c1.4294-2.2236 3.4026-4.1723 5.8827-5.6262 8.3751-4.9237 19.304-2.358 24.398 5.73 1.9976 3.1704 2.8039 6.7258 2.5412 10.159l94.509 24.447c1.3806-2.4924 3.4942-4.6427 6.2432-6.121zm30.018 79.811-21.741-51.387c-5.7606 0.2383-11.442-2.6084-14.417-7.807-1.4172-2.4862-2.0525-5.1924-1.9548-7.8253l-94.594-24.472c-1.4478 2.694-3.653 5.058-6.5364 6.7502-0.84301 0.4887-1.7043 0.9041-2.584 1.2523l12.297 88.724c5.2352 0.6047 10.141 3.4392 13.091 8.1185 1.4294 2.2664 2.2419 4.7221 2.5046 7.19 12.462 10.721 13.885 21.277 21.356 26.475 12.914 8.9982 49.218-2.4679 62.444-9.2914 8.4973-4.3861 16.28-9.9268 23.659-16.243-3.0605-7.8864-0.24435-16.61 6.4814-21.497v0.01zm-14.814-53.274 21.234 50.202c3.8241-1.0446 7.7765-0.8918 11.362 0.2688 26.023-28.949 51.961-63.672 95.785-86.146 17.312-14.166 41.894-8.8027 57.612-19.432 1.8265-1.234 3.5064-2.5046 5.0642-3.7996-0.72084-1.5761-1.179-3.2132-1.3806-4.8626l-90.648-11.484c-1.3806 3.3293-3.8424 6.2737-7.2572 8.2713-6.9518 4.0929-15.675 3.0116-21.35-2.1075l-63.849 49.298c3.5553 7.1839 0.73305 15.895-6.573 19.792zm-105.68 88.919c9.8229 9.9328 8.1185 16.121 18.821 23.574 18.821 13.097 58.895 2.0709 78.876-8.2346 9.8656-5.0886 18.736-11.509 27.056-18.778 4.5938 1.8327 9.9267 1.9793 14.881-0.031 9.8718-3.9829 14.521-14.942 10.391-24.466-0.10996-0.2566-0.23214-0.5192-0.35431-0.7636 25.987-29.114 51.198-62.743 93.348-83.452 12.364-11.656 38.766-6.8052 57.593-19.566 3.036-2.0586 5.7789-4.1784 8.2713-6.3409 4.3922 1.0079 9.1754 0.40928 13.348-2.0342 8.3751-4.9237 11.032-15.467 5.9316-23.568-0.47648-0.74527-1.0018-1.4539-1.5761-2.1136 10.226-43.58-44.68-96.824-95.498-128.6 0.80636-4.044 0.11607-8.369-2.2725-12.15-5.1008-8.088-16.023-10.66-24.398-5.73-0.89799 0.52535-1.7349 1.124-2.4924 1.7715-6.0599-2.8772-11.82-5.2841-17.123-7.1473-55.999-19.713-120.53-15.95-178.96 4.4899-5.6262-3.989-13.409-4.551-19.75-0.82468-4.6976 2.755-7.5932 7.2878-8.3324 12.163-54.869 25.168-101.58 65.272-126.37 113.97-2.4068 0.29322-4.8015 1.069-7.0129 2.3702-8.3873 4.9176-11.039 15.467-5.9377 23.562 0.44594 0.71473 0.93464 1.3806 1.4661 1.9976-1.405 4.4533-2.6206 8.9677-3.6408 13.525-17.172 76.5 23.189 183.15 119.62 152.63 8.1308-2.5717 13.781-5.5223 19.432-8.5706 5.5468 6.3715 15.223 8.0636 22.81 3.6042 0.66585-0.3971 1.295-0.8186 1.8815-1.2706z"
   fill="#f00"
   stroke-width=".61088"
   style="paint-order:stroke;fill:#ff0000"
   id="path8" />
  
 
</svg>
