<?xml version="1.0" encoding="UTF-8" standalone="no"?>
<!-- Creator: CorelDRAW 2018 (64-Bit) -->

<svg
   xmlns:dc="http://purl.org/dc/elements/1.1/"
   xmlns:cc="http://creativecommons.org/ns#"
   xmlns:rdf="http://www.w3.org/1999/02/22-rdf-syntax-ns#"
   xmlns:svg="http://www.w3.org/2000/svg"
   xmlns="http://www.w3.org/2000/svg"
   xmlns:sodipodi="http://sodipodi.sourceforge.net/DTD/sodipodi-0.dtd"
   xmlns:inkscape="http://www.inkscape.org/namespaces/inkscape"
   width="16"
   height="16"
   version="1.1"
   viewBox="0 0 498.34392 498.34373"
   xml:space="preserve"
   id="svg3778"
   sodipodi:docname="favicon.svg"
   style="clip-rule:evenodd;fill-rule:evenodd;image-rendering:optimizeQuality;shape-rendering:geometricPrecision;text-rendering:geometricPrecision"
   inkscape:version="0.92.4 (5da689c313, 2019-01-14)"><sodipodi:namedview
   pagecolor="#ffffff"
   bordercolor="#666666"
   borderopacity="1"
   objecttolerance="10"
   gridtolerance="10"
   guidetolerance="10"
   inkscape:pageopacity="0"
   inkscape:pageshadow="2"
   inkscape:window-width="1920"
   inkscape:window-height="1057"
   id="namedview3780"
   showgrid="false"
   units="px"
   inkscape:zoom="5.9907251"
   inkscape:cx="90.415053"
   inkscape:cy="0.75546324"
   inkscape:window-x="-8"
   inkscape:window-y="-8"
   inkscape:window-maximized="1"
   inkscape:current-layer="svg3778" /><metadata
   id="metadata3766"><rdf:RDF><cc:Work
       rdf:about=""><dc:format>image/svg+xml</dc:format><dc:type
         rdf:resource="http://purl.org/dc/dcmitype/StillImage" /><dc:title></dc:title></cc:Work></rdf:RDF></metadata>
 <defs
   id="defs3770">
  <style
   type="text/css"
   id="style3768">
   <![CDATA[
    .fil1 {fill:#5371FF}
    .fil0 {fill:#999A9B}
    .fil2 {fill:#5371FF;fill-rule:nonzero}
   ]]>
  </style>
 </defs>
 
  
  
  <path
   class="fil1"
   d="m 137.5269,274.8862 c -5.2291,-0.59866 -10.14055,-3.43313 -13.09108,-8.11244 -1.93648,-3.07271 -2.75505,-6.49362 -2.55957,-9.829 l -85.5899,-25.8584 c -1.41724,2.2297 -3.39648,4.1784 -5.87663,5.63839 -2.69397,1.58217 -5.65672,2.39464 -8.61336,2.48627 -1.03849,3.45756 -1.9487,6.95177 -2.74894,10.48264 -14.5633003,64.88115 16.0355,161.60125 99.56064,135.16865 7.40993,-2.3519 13.95852,-5.9561 20.62929,-9.4869 1.08736,-4.2273 3.84242,-8.0636 7.99638,-10.5071 0.843,-0.4948 1.71045,-0.9163 2.59011,-1.2584 L 137.52079,274.8862 Z m 96.63453,-101.60707 c 0.10996,-2.66342 0.84301,-5.27186 2.17472,-7.60541 L 172.46903,108.0131 c -0.10996,0.0733 -0.21992,0.13439 -0.32987,0.20159 -7.21445,4.23337 -16.3104,2.92609 -21.9549,-2.68175 -50.37287,23.50652 -93.28083,60.2263 -116.40251,104.45375 0.96519,0.93464 1.83263,1.99146 2.57179,3.17045 0.25657,0.40929 0.49481,0.8369 0.72084,1.2584 l 197.09316,-41.13641 z m 130.12278,-72.85312 c -0.43372,-1.313378 -0.69029,-2.669528 -0.77581,-4.019568 -6.04768,-2.93831 -11.61276,-5.32073 -16.46312,-7.02507 -51.7901,-18.222448 -111.77816,-14.819858 -166.39051,3.87906 0.055,2.98719 -0.6964,5.93772 -2.18083,8.558378 l 63.86713,57.66062 c 0.10996,-0.0733 0.21381,-0.13439 0.32987,-0.20159 6.68299,-3.92793 14.99091,-3.09103 20.66595,1.51498 l 100.94121,-60.3607 z m -0.88577,106.42078 c 3.03606,1.38058 5.70559,3.61028 7.58098,6.59135 1.36836,2.1564 2.17472,4.49605 2.46183,6.85404 l 90.65406,11.48447 c 1.37447,-3.32928 3.83019,-6.2737 7.2511,-8.27737 2.50459,-1.46611 5.2291,-2.27246 7.95361,-2.44962 6.42031,-36.76865 -45.3759,-82.78597 -90.14703,-110.42201 -2.19305,1.06292 -4.52048,1.63715 -6.85403,1.77154 l -18.89441,94.4476 z m -94.49036,-27.99647 72.59044,33.34163 c 1.33171,-1.7471 3.03606,-3.28651 5.0825,-4.48994 2.55957,-1.50275 5.36349,-2.31522 8.16741,-2.47405 l 18.89441,-94.44149 c -1.71656,-0.78192 -3.32317,-1.83873 -4.73429,-3.15212 l -100.44641,60.07359 c 1.46611,3.64082 1.55774,7.55654 0.44594,11.13627 z m -1.97924,96.74449 c 3.05439,0.23825 6.00492,1.33782 8.44232,3.18878 l 64.16645,-49.55429 c -1.57606,-3.47589 -1.87539,-7.25111 -1.02016,-10.76975 l -73.00584,-33.5249 c -1.21564,1.40502 -2.67564,2.63288 -4.37387,3.62861 -2.32133,1.36836 -4.83204,2.15028 -7.37328,2.40685 l 13.15828,84.6247 z m -8.86381,1.83874 c 0.59255,-0.31154 1.1851,-0.58033 1.78987,-0.81857 l -13.43928,-86.39625 c -3.8974,-1.22175 -7.37939,-3.74467 -9.6824,-7.3916 -0.25656,-0.40929 -0.49481,-0.8369 -0.72083,-1.25841 l -197.09317,41.13642 -0.006,0.27489 85.57769,25.8584 c 1.42945,-2.22359 3.40258,-4.17229 5.88274,-5.62617 8.37511,-4.92367 19.30369,-2.35799 24.3984,5.73002 1.99757,3.17045 2.80392,6.72575 2.54125,10.15887 l 94.50868,24.44727 c 1.38058,-2.49237 3.49421,-4.64266 6.24316,-6.12098 z m 30.01846,79.81096 -21.74109,-51.3869 c -5.76056,0.2383 -11.44171,-2.6084 -14.41668,-7.807 -1.41723,-2.4862 -2.05254,-5.1924 -1.9548,-7.8253 L 155.37671,265.7536 c -1.44778,2.69396 -3.65304,5.05805 -6.53638,6.75018 -0.84301,0.4887 -1.70434,0.9041 -2.58401,1.2523 l 12.29694,88.72373 c 5.23522,0.6047 10.14055,3.4392 13.09109,8.1185 1.42945,2.2664 2.24191,4.7221 2.50459,7.19 12.46188,10.7209 13.88522,21.2768 21.35624,26.4754 12.91392,8.9982 49.21831,-2.4679 62.44378,-9.2914 8.49729,-4.3861 16.27986,-9.9268 23.65924,-16.2432 -3.06049,-7.8864 -0.24435,-16.6098 6.4814,-21.4968 v 0.01 z m -14.81375,-53.2745 21.23406,50.2018 c 3.82409,-1.0446 7.77646,-0.8918 11.3623,0.2688 26.02334,-28.9494 51.96115,-63.6716 95.78542,-86.14577 17.31224,-14.16622 41.8939,-8.80273 57.61175,-19.43198 1.82652,-1.23397 3.50643,-2.50459 5.06417,-3.79965 -0.72084,-1.57606 -1.17899,-3.21321 -1.38058,-4.86257 l -90.64795,-11.48448 c -1.38058,3.32928 -3.84241,6.2737 -7.25721,8.27127 -6.95177,4.09287 -15.67509,3.01162 -21.35013,-2.10753 l -63.8488,49.29773 c 3.5553,7.18388 0.73305,15.89498 -6.57303,19.79238 z m -105.68161,88.9192 c 9.82289,9.9328 8.11854,16.121 18.8211,23.5737 18.8211,13.0972 58.89459,2.0709 78.87636,-8.2346 9.86565,-5.0886 18.73558,-11.5089 27.05571,-18.7784 4.59379,1.8327 9.92674,1.9793 14.88095,-0.031 9.87176,-3.9829 14.52053,-14.942 10.39101,-24.4656 -0.10996,-0.2566 -0.23214,-0.5192 -0.35431,-0.7636 25.98668,-29.1144 51.19755,-62.7431 93.34802,-83.45182 12.36414,-11.65552 38.76622,-6.80516 57.59343,-19.56637 3.03605,-2.05865 5.77889,-4.17839 8.27126,-6.34089 4.3922,1.00794 9.17536,0.40928 13.34765,-2.03422 8.37512,-4.92367 11.03243,-15.46739 5.93161,-23.56761 -0.47648,-0.74527 -1.00184,-1.45389 -1.57606,-2.11364 10.22611,-43.57992 -44.6795,-96.8239 -95.49831,-128.595578 0.80636,-4.044 0.11607,-8.36901 -2.27246,-12.150328 -5.10081,-8.08801 -16.02328,-10.6598 -24.3984,-5.73002 -0.89799,0.52535 -1.73489,1.12401 -2.49237,1.77154 -6.0599,-2.87723 -11.82046,-5.28408 -17.12287,-7.14726 -55.99904,-19.71298 -120.53202,-15.94998 -178.96235,4.48994 -5.62617,-3.98902 -13.40873,-4.55102 -19.74963,-0.82468 -4.69764,2.75505 -7.59319,7.28776 -8.33235,12.162548 C 90.4772,116.25943 43.76958,156.36346 18.97411,205.05642 c -2.40685,0.29322 -4.80149,1.06903 -7.01286,2.3702 -8.3873303,4.91755 -11.03854026,15.46739 -5.9377203,23.5615 0.44594,0.71473 0.93464,1.38058 1.4661,1.99757 -1.40501,4.45329 -2.62065,8.96766 -3.64082,13.5248 C -13.32292,323.01051 27.03768,429.66341 123.47063,399.13791 c 8.13077,-2.5717 13.78138,-5.5223 19.43198,-8.5706 5.54676,6.3715 15.22304,8.0636 22.81013,3.6042 0.66585,-0.3971 1.29505,-0.8186 1.8815,-1.2706 z m 0,0 z"
   id="path3774"
   inkscape:connector-curvature="0"
   style="fill:#5371ff;stroke-width:0.61087638;paint-order:stroke" />
  
 
</svg>