<?xml version="1.0" encoding="UTF-8"?>
<!-- Created with Inkscape (http://www.inkscape.org/) -->
<svg width="56.127mm" height="9.6484mm" version="1.1" viewBox="0 0 56.127 9.6484" xmlns="http://www.w3.org/2000/svg" xmlns:cc="http://creativecommons.org/ns#" xmlns:dc="http://purl.org/dc/elements/1.1/" xmlns:rdf="http://www.w3.org/1999/02/22-rdf-syntax-ns#">
 <defs>
  <style type="text/css"><![CDATA[
    .fil1 {fill:#5371FF}
    .fil0 {fill:#999A9B}
    .fil2 {fill:#5371FF;fill-rule:nonzero}
   ]]></style>
 </defs>
 <metadata>
  <rdf:RDF>
   <cc:Work rdf:about="">
    <dc:format>image/svg+xml</dc:format>
    <dc:type rdf:resource="http://purl.org/dc/dcmitype/StillImage"/>
    <dc:title/>
   </cc:Work>
  </rdf:RDF>
 </metadata>
 <g transform="translate(-76.967 -147.79)">
  <path class="fil0" d="m84.896 152.53c0.04366 0.14288 0.10151 0.2613 0.16599 0.36409l0.07688-0.77464c-0.07688-0.0256-0.13864-0.0856-0.16658-0.16149h-1.9734l1.877 0.1072c-0.02107 0.15639-0.02234 0.30854 0.02013 0.46467v9e-5zm-1.6728-3.8492c-0.0077-0.0589-0.0282-0.11587-0.0604-0.16709-0.11434-0.18128-0.3471-0.24669-0.53908-0.1631-0.05479-0.024-0.11043-0.0462-0.16658-0.066-0.41582-0.14628-0.85848-0.20319-1.2981-0.18833-0.41913 0.0142-0.83759 0.0933-1.2358 0.22512-0.123-0.0486-0.26512-0.0396-0.38184 0.0289-0.07798 0.0458-0.13864 0.11434-0.17389 0.19538-0.70218 0.33741-1.3545 0.87021-1.7308 1.5598-0.02277 9e-3 -0.04494 0.0193-0.066 0.0317-0.18892 0.11094-0.26036 0.34599-0.16769 0.53916-0.01121 0.0401-0.02132 0.0806-0.03041 0.12123-0.05513 0.24541-0.06974 0.50314-0.0491 0.75348 0.0446 0.5401 0.26572 1.1332 0.72962 1.4496 0.36884 0.25153 0.79902 0.26453 1.2152 0.13269 0.06983-0.0221 0.13328-0.0483 0.19632-0.0785 0.09268 0.0503 0.20192 0.0652 0.30522 0.0416 0.01164 0.0195 0.02302 0.04 0.03661 0.0626 0.04774 0.0798 0.10177 0.13778 0.17839 0.19121 0.33308 0.23183 0.95031 0.0701 1.2841-0.10219 0.12148-0.0627 0.23386-0.1388 0.33962-0.22452 0.07679 0.01 0.15537-5.1e-4 0.22842-0.03 0.19317-0.0781 0.30411-0.27676 0.27404-0.47401 0.35738-0.4058 0.67007-0.79444 1.1756-1.0427l0.02463-0.0121 0.01988-0.0188c0.05258-0.0496 0.2043-0.0714 0.27353-0.0836 0.18-0.0315 0.34999-0.0656 0.50468-0.17041 0.0237-0.0161 0.04698-0.0328 0.06983-0.0504 0.07696 1.7e-4 0.15342-0.0201 0.22086-0.0598 0.19351-0.11366 0.26376-0.35763 0.16064-0.55327 0.09692-0.72537-0.7591-1.4679-1.3373-1.8477zm1.914 4.5897c0.07892 0.0131 0.13507 0.0223 0.21271-0.0133 0.12037 0.1349 0.1885 0.26444 0.24958 0.42984 0.05632 0.24889-0.33053 0.32577-0.59982 0.4763-0.09463 0.7004 0.22944 0.70244-0.18391 0.91294 0.3307 0.53508-0.2342 0.0261-0.23097 1.1871 0.06278 0.6637-0.44258 0.6852-1.0432 0.6107-0.37989-0.0471-0.89442-0.33852-1.1344-0.11817-0.15248 0.21662-0.29282 0.43884-0.39781 0.67729l-3.5428-1.455c0.53611-1.1153-0.95728-2.2508-1.3076-3.4639-0.62751-1.7524 0.25756-4.0976 3.0536-4.6332 2.4317-0.46603 4.5675 0.80853 4.8198 2.793 0.06133 0.48302-0.05148 0.85458-0.12139 1.192h0.25323l0.0098-0.0988c0.0037-0.0365 0.03576-0.0635 0.07221-0.0603l0.07051 6e-3c0.0999 9e-3 0.17542 0.098 0.16531 0.19784l-0.10984 1.0978c-0.01147 0.11477-0.09208 0.23701-0.23488 0.26164z" clip-rule="evenodd" fill="#999a9b" fill-rule="evenodd" image-rendering="optimizeQuality" shape-rendering="geometricPrecision" stroke-width=".0084948" style="paint-order:stroke"/>
  <path class="fil1" d="m79.409 151.24c-0.07272-8e-3 -0.14101-0.0477-0.18204-0.11281-0.02693-0.0427-0.03831-0.0903-0.03559-0.13668l-1.1902-0.35959c-0.01971 0.031-0.04723 0.0581-0.08172 0.0784-0.03746 0.022-0.07866 0.0333-0.11978 0.0346-0.01444 0.0481-0.0271 0.0967-0.03823 0.14577-0.20252 0.90224 0.22299 2.2472 1.3845 1.8796 0.10304-0.0327 0.19411-0.0828 0.28687-0.13193 0.01512-0.0588 0.05343-0.11213 0.1112-0.14611 0.01172-7e-3 0.02378-0.0127 0.03602-0.0175l-0.17109-1.2338zm1.3438-1.4129c0.0015-0.037 0.01172-0.0733 0.03024-0.10576l-0.88813-0.80182c-0.0015 1e-3 -0.0031 2e-3 -0.0046 3e-3 -0.10032 0.0589-0.22681 0.0407-0.3053-0.0373-0.70048 0.32688-1.2972 0.8375-1.6187 1.4525 0.01342 0.013 0.02549 0.0277 0.03576 0.0441 0.0036 6e-3 0.0069 0.0116 0.01002 0.0175l2.7408-0.57204zm1.8095-1.0131c-6e-3 -0.0183-0.0096-0.0371-0.01079-0.0559-0.0841-0.0409-0.16149-0.074-0.22894-0.0977-0.72019-0.2534-1.5544-0.20608-2.3138 0.0539 7.65e-4 0.0415-0.0097 0.0826-0.03033 0.11901l0.88813 0.80182c0.0015-1e-3 3e-3 -2e-3 0.0046-3e-3 0.09293-0.0546 0.20846-0.043 0.28738 0.0211l1.4037-0.83938zm-0.01232 1.4799c0.04222 0.0192 0.07934 0.0502 0.10542 0.0917 0.01903 0.03 0.03024 0.0625 0.03423 0.0953l1.2606 0.1597c0.01911-0.0463 0.05326-0.0872 0.10083-0.1151 0.03483-0.0204 0.07272-0.0316 0.1106-0.0341 0.08928-0.5113-0.63099-1.1512-1.2536-1.5355-0.0305 0.0148-0.06286 0.0228-0.09531 0.0246l-0.26274 1.3134zm-1.314-0.38932 1.0094 0.46365c0.01852-0.0243 0.04222-0.0457 0.07068-0.0624 0.03559-0.0209 0.07458-0.0322 0.11358-0.0344l0.26274-1.3133c-0.02387-0.0109-0.04621-0.0256-0.06583-0.0438l-1.3968 0.83538c0.02039 0.0506 0.02166 0.10508 0.0062 0.15486zm-0.02752 1.3453c0.04247 3e-3 0.0835 0.0186 0.1174 0.0443l0.89229-0.6891c-0.02192-0.0483-0.02608-0.10083-0.01419-0.14976l-1.0152-0.4662c-0.01691 0.0195-0.03721 0.0366-0.06082 0.0505-0.03228 0.019-0.06719 0.0299-0.10253 0.0335l0.18298 1.1768zm-0.12326 0.0256c0.0082-4e-3 0.01648-8e-3 0.02489-0.0114l-0.18689-1.2014c-0.0542-0.017-0.10262-0.0521-0.13464-0.10279-0.0036-6e-3 -0.0069-0.0116-0.01002-0.0175l-2.7408 0.57204-8.5e-5 4e-3 1.19 0.35958c0.01988-0.0309 0.04732-0.058 0.08181-0.0782 0.11646-0.0685 0.26844-0.0328 0.33928 0.0797 0.02778 0.0441 0.03899 0.0935 0.03534 0.14126l1.3142 0.33997c0.0192-0.0347 0.04859-0.0646 0.08682-0.0851zm0.41744 1.1098-0.30233-0.71458c-0.08011 3e-3 -0.15911-0.0363-0.20048-0.10857-0.01971-0.0346-0.02854-0.0722-0.02718-0.10882l-1.3154-0.3403c-0.02013 0.0375-0.0508 0.0703-0.09089 0.0939-0.01172 7e-3 -0.0237 0.0126-0.03593 0.0174l0.171 1.2338c0.0728 8e-3 0.14101 0.0478 0.18204 0.11289 0.01988 0.0315 0.03118 0.0657 0.03483 0.1 0.17329 0.14908 0.19309 0.29587 0.29698 0.36816 0.17958 0.12513 0.68443-0.0343 0.86834-0.1292 0.11816-0.061 0.22639-0.13804 0.329-0.22588-0.04256-0.10967-0.0034-0.23097 0.09013-0.29893v8e-5zm-0.206-0.74083 0.29528 0.6981c0.05318-0.0145 0.10814-0.0124 0.158 4e-3 0.36188-0.40257 0.72257-0.88542 1.332-1.1979 0.24074-0.19699 0.58257-0.12241 0.80114-0.27022 0.0254-0.0172 0.04876-0.0348 0.07042-0.0528-0.01002-0.0219-0.01639-0.0447-0.0192-0.0676l-1.2605-0.1597c-0.0192 0.0463-0.05343 0.0872-0.10092 0.11502-0.09667 0.0569-0.21798 0.0419-0.29689-0.0293l-0.88788 0.68553c0.04944 0.0999 0.01019 0.22103-0.0914 0.27523zm-1.4696 1.2365c0.1366 0.13813 0.1129 0.22418 0.26172 0.32781 0.26172 0.18213 0.81898 0.0288 1.0968-0.11451 0.13719-0.0708 0.26054-0.16004 0.37623-0.26113 0.06388 0.0255 0.13804 0.0275 0.20693-4.2e-4 0.13728-0.0554 0.20192-0.20778 0.1445-0.34022-0.0015-4e-3 -0.0032-7e-3 -0.0049-0.0106 0.36137-0.40486 0.71195-0.8725 1.2981-1.1605 0.17193-0.16208 0.53908-0.0946 0.80089-0.27209 0.04222-0.0286 0.08036-0.0581 0.11502-0.0882 0.06108 0.014 0.12759 6e-3 0.18561-0.0283 0.11646-0.0685 0.15342-0.21509 0.08249-0.32773-0.0066-0.0104-0.01393-0.0202-0.02192-0.0294 0.1422-0.60602-0.62131-1.3464-1.328-1.7882 0.01121-0.0562 0.0016-0.11638-0.0316-0.16897-0.07093-0.11247-0.22282-0.14823-0.33928-0.0797-0.01249 7e-3 -0.02412 0.0156-0.03466 0.0246-0.08427-0.04-0.16437-0.0735-0.23811-0.0994-0.77872-0.27413-1.6761-0.2218-2.4886 0.0624-0.07824-0.0555-0.18646-0.0633-0.27464-0.0115-0.06533 0.0383-0.10559 0.10134-0.11587 0.16913-0.763 0.34999-1.4125 0.90767-1.7573 1.5848-0.03347 4e-3 -0.06677 0.0149-0.09752 0.033-0.11663 0.0684-0.1535 0.21509-0.08257 0.32764 0.0062 0.01 0.013 0.0192 0.02039 0.0278-0.01954 0.0619-0.03644 0.12471-0.05063 0.18808-0.23879 1.0638 0.32246 2.5469 1.6635 2.1224 0.11307-0.0358 0.19164-0.0768 0.27022-0.11918 0.07713 0.0886 0.21169 0.11213 0.3172 0.0501 0.0093-6e-3 0.01801-0.0114 0.02616-0.0177z" clip-rule="evenodd" fill="#5371ff" fill-rule="evenodd" image-rendering="optimizeQuality" shape-rendering="geometricPrecision" stroke-width=".0084948" style="paint-order:stroke"/>
  <g transform="scale(.8956 1.1166)" fill="#5371ff" stroke-width=".16154" aria-label="Эрнест Неизвестный">
   <path d="m100.22 136.64q0 0.50795-0.11357 0.90548-0.11043 0.39437-0.33443 0.6657-0.224 0.26818-0.55528 0.41015-0.32812 0.14197-0.76666 0.14197-0.16406 0-0.33127-0.0284-0.16721-0.0252-0.31865-0.0694-0.14828-0.0473-0.26502-0.10727-0.11358-0.0599-0.1609-0.10096-0.04417-0.041-0.05679-0.0631-0.01262-0.0252-0.02209-0.0568-0.0063-0.0347-0.0095-0.0852t-0.0032-0.1262q0-0.0947 0.01893-0.14513 0.01893-0.0505 0.06941-0.0505 0.03471 0 0.10727 0.0568 0.07256 0.0568 0.19876 0.1262 0.1262 0.0694 0.31865 0.1262t0.46378 0.0568q0.27448 0 0.48902-0.0947t0.36282-0.2808q0.15144-0.18614 0.23031-0.46062 0.08203-0.27449 0.08834-0.64362h-1.9498q-0.02524 0-0.04417-0.0126t-0.0347-0.0379q-0.01262-0.0284-0.01893-0.0694-0.0063-0.0442-0.0063-0.10096 0-0.0631 0.0063-0.10411 0.0063-0.0442 0.01893-0.0694 0.01578-0.0284 0.0347-0.041 0.01893-0.0158 0.04417-0.0158h1.9435q-0.02208-0.30919-0.11042-0.55528-0.08834-0.24924-0.24293-0.41961-0.15459-0.17353-0.37544-0.26502-0.22085-0.0915-0.50164-0.0915-0.22085 0-0.39122 0.0536-0.17037 0.0536-0.29657 0.11673-0.12304 0.06-0.20192 0.11358-0.07572 0.0536-0.10727 0.0536-0.01893 0-0.03471-9e-3 -0.01262-9e-3 -0.02524-0.0315-0.0095-0.0252-0.01578-0.0631-0.0063-0.041-0.0063-0.10411 0-0.0599 0.0032-0.10412 0.0032-0.0442 0.01262-0.0757 0.0095-0.0316 0.01893-0.0536 0.01262-0.0252 0.03471-0.0473 0.02524-0.0252 0.11673-0.0789 0.09465-0.0536 0.23662-0.10412 0.14513-0.0536 0.32812-0.0915 0.18299-0.041 0.39437-0.041 0.41961 0 0.74773 0.14197 0.33127 0.13882 0.55528 0.40384t0.34074 0.65308q0.11673 0.38491 0.11673 0.87393z"/>
   <path d="m103.37 137.16q0 0.37229-0.082 0.66885-0.0789 0.29657-0.23662 0.5048-0.1546 0.20508-0.38491 0.31866-0.23032 0.11042-0.52688 0.11042-0.1262 0-0.23347-0.0252t-0.21139-0.0789q-0.10096-0.0536-0.20192-0.13567-0.10096-0.082-0.21454-0.19245v1.4197q0 0.0252-0.0126 0.0442-0.0126 0.0189-0.041 0.0316-0.0284 0.0126-0.0789 0.0189-0.0505 6e-3 -0.12936 6e-3 -0.0757 0-0.1262-6e-3t-0.082-0.0189q-0.0284-0.0126-0.041-0.0316-9e-3 -0.0189-9e-3 -0.0442v-3.9658q0-0.0284 9e-3 -0.0442 9e-3 -0.0189 0.0379-0.0316 0.0284-0.0126 0.0726-0.0158 0.0442-6e-3 0.10727-6e-3 0.0663 0 0.10727 6e-3 0.0442 3e-3 0.0726 0.0158 0.0284 0.0126 0.0379 0.0316 0.0126 0.0158 0.0126 0.0442v0.38176q0.12936-0.13251 0.24925-0.23032 0.11989-0.0978 0.23978-0.1609 0.12304-0.0663 0.24924-0.0978 0.12936-0.0347 0.27133-0.0347 0.30919 0 0.52688 0.11989 0.2177 0.11989 0.35336 0.32812 0.13882 0.20823 0.20192 0.48587 0.0631 0.27448 0.0631 0.58367zm-0.54897 0.0599q0-0.21769-0.0347-0.41961-0.0316-0.20507-0.11358-0.36282-0.0789-0.15775-0.21454-0.2524-0.13567-0.0947-0.33758-0.0947-0.10096 0-0.19877 0.0316-0.0978 0.0284-0.19876 0.0947-0.10096 0.0631-0.21139 0.17037-0.11042 0.10411-0.23347 0.25871v1.1295q0.21454 0.26186 0.407 0.40068 0.19245 0.13882 0.40384 0.13882 0.1956 0 0.33442-0.0947 0.14198-0.0946 0.22716-0.2524 0.0883-0.15775 0.12936-0.35335 0.041-0.19561 0.041-0.39438z"/>
   <path d="m106.38 138.63q0 0.0252-0.0126 0.0442-0.0126 0.0158-0.041 0.0284t-0.0789 0.0189q-0.0505 6e-3 -0.12619 6e-3 -0.0789 0-0.12936-6e-3 -0.0505-6e-3 -0.0789-0.0189-0.0284-0.0126-0.041-0.0284-0.0126-0.0189-0.0126-0.0442v-1.2462h-1.4481v1.2462q0 0.0252-0.0126 0.0442-0.0126 0.0158-0.041 0.0284t-0.0789 0.0189q-0.0505 6e-3 -0.12935 6e-3 -0.0757 0-0.1262-6e-3t-0.082-0.0189q-0.0284-0.0126-0.041-0.0284-9e-3 -0.0189-9e-3 -0.0442v-2.8395q0-0.0252 9e-3 -0.041 0.0126-0.0189 0.041-0.0316 0.0315-0.0158 0.082-0.0189 0.0505-6e-3 0.1262-6e-3 0.0789 0 0.12935 6e-3 0.0505 3e-3 0.0789 0.0189 0.0284 0.0126 0.041 0.0316 0.0126 0.0158 0.0126 0.041v1.1547h1.4481v-1.1547q0-0.0252 0.0126-0.041 0.0126-0.0189 0.041-0.0316 0.0284-0.0158 0.0789-0.0189 0.0505-6e-3 0.12936-6e-3 0.0757 0 0.12619 6e-3 0.0505 3e-3 0.0789 0.0189 0.0284 0.0126 0.041 0.0316 0.0126 0.0158 0.0126 0.041z"/>
   <path d="m109.5 137.08q0 0.12305-0.0631 0.17668-0.06 0.0505-0.13882 0.0505h-1.8614q0 0.23663 0.0473 0.42592 0.0473 0.1893 0.15775 0.32497 0.11043 0.13566 0.28711 0.20823 0.17668 0.0726 0.43223 0.0726 0.20192 0 0.35967-0.0316 0.15775-0.0347 0.27133-0.0757 0.11673-0.041 0.1893-0.0726 0.0757-0.0347 0.11357-0.0347 0.0221 0 0.0379 0.0126 0.0189 9e-3 0.0284 0.0315 9e-3 0.0221 0.0126 0.0631 6e-3 0.0379 6e-3 0.0946 0 0.041-3e-3 0.0726-3e-3 0.0284-9e-3 0.0536-3e-3 0.0221-0.0158 0.041-9e-3 0.0189-0.0284 0.0379-0.0158 0.0158-0.10096 0.0568-0.0852 0.0379-0.22085 0.0757-0.13566 0.0379-0.3155 0.0662-0.17668 0.0316-0.3786 0.0316-0.3502 0-0.61522-0.0978-0.26186-0.0978-0.44169-0.29026-0.17984-0.19246-0.27133-0.48272-0.0915-0.29025-0.0915-0.67516 0-0.36598 0.0947-0.65624 0.0947-0.29341 0.27133-0.49533 0.17983-0.20508 0.43223-0.31235 0.2524-0.11042 0.56475-0.11042 0.33442 0 0.56789 0.10727 0.23663 0.10727 0.38807 0.29026 0.15143 0.17983 0.22084 0.42592 0.0726 0.24293 0.0726 0.52057zm-0.52373-0.15459q9e-3 -0.41015-0.18299-0.64362-0.1893-0.23347-0.56474-0.23347-0.19245 0-0.33758 0.0726t-0.24294 0.19245q-0.0978 0.11989-0.15144 0.2808-0.0536 0.15774-0.0599 0.33127z"/>
   <path d="m112.08 138.19q0 0.0536-3e-3 0.0946-3e-3 0.0379-0.0126 0.0663-6e-3 0.0252-0.0189 0.0473-9e-3 0.0189-0.0505 0.0599-0.0379 0.0379-0.13251 0.0978-0.0947 0.0568-0.21454 0.10411-0.11673 0.0442-0.25555 0.0726t-0.2871 0.0284q-0.30604 0-0.54266-0.10096t-0.39753-0.29341q-0.15775-0.19561-0.24293-0.47641-0.082-0.28394-0.082-0.65308 0-0.41961 0.10096-0.71933 0.10411-0.30288 0.28079-0.49534 0.17983-0.19245 0.41961-0.28395 0.24294-0.0946 0.52373-0.0946 0.13567 0 0.26186 0.0252 0.12936 0.0252 0.23663 0.0662t0.1893 0.0947q0.0852 0.0536 0.12304 0.0915 0.0379 0.0379 0.0505 0.06 0.0158 0.0221 0.0252 0.0536 9e-3 0.0284 0.0126 0.0663 3e-3 0.0379 3e-3 0.0947 0 0.12304-0.0284 0.17352-0.0284 0.0473-0.0694 0.0473-0.0473 0-0.11042-0.0505-0.06-0.0536-0.1546-0.11674-0.0947-0.0631-0.23031-0.11358-0.13251-0.0536-0.3155-0.0536-0.37544 0-0.57736 0.29026-0.19876 0.2871-0.19876 0.83607 0 0.27448 0.0505 0.48271 0.0536 0.20507 0.1546 0.34389 0.10096 0.13882 0.24609 0.20823 0.14828 0.0663 0.33758 0.0663 0.17984 0 0.3155-0.0568t0.23347-0.12305q0.10096-0.0694 0.16721-0.12304 0.0694-0.0568 0.10727-0.0568 0.0221 0 0.0379 0.0126t0.0252 0.0442q0.0126 0.0284 0.0158 0.0757 6e-3 0.0442 6e-3 0.10727z"/>
   <path d="m114.5 135.94q0 0.0631-6e-3 0.10727-6e-3 0.0442-0.0221 0.0726-0.0126 0.0284-0.0315 0.0442-0.0189 0.0126-0.0473 0.0126h-0.85185v2.4483q0 0.0252-0.0126 0.0442-0.0126 0.0158-0.041 0.0284t-0.0789 0.0189q-0.0505 6e-3 -0.12935 6e-3 -0.0757 0-0.1262-6e-3t-0.082-0.0189q-0.0284-0.0126-0.041-0.0284-9e-3 -0.0189-9e-3 -0.0442v-2.4483h-0.85185q-0.0252 0-0.0473-0.0126-0.0189-0.0158-0.0316-0.0442-0.0126-0.0284-0.0221-0.0726-6e-3 -0.0473-6e-3 -0.11043 0-0.0568 6e-3 -0.10096 9e-3 -0.0442 0.0221-0.0726 0.0158-0.0315 0.0347-0.0442 0.0189-0.0158 0.0442-0.0158h2.2243q0.0252 0 0.0442 0.0158 0.0221 0.0126 0.0347 0.0442 0.0126 0.0284 0.0189 0.0757 9e-3 0.0442 9e-3 0.10096z"/>
   <path d="m118.94 138.62q0 0.0252-0.0126 0.0442-0.0126 0.0189-0.0442 0.0315-0.0315 9e-3 -0.0852 0.0158-0.0505 9e-3 -0.1262 9e-3 -0.082 0-0.1325-9e-3 -0.0505-6e-3 -0.082-0.0158-0.0315-0.0126-0.0442-0.0315-0.0126-0.0189-0.0126-0.0442v-1.811h-1.8583v1.811q0 0.0252-0.0126 0.0442-0.0126 0.0189-0.0442 0.0315-0.0315 9e-3 -0.0852 0.0158-0.0505 9e-3 -0.12936 9e-3 -0.0757 0-0.12935-9e-3 -0.0536-6e-3 -0.0852-0.0158-0.0316-0.0126-0.0442-0.0315t-0.0126-0.0442v-3.9185q0-0.0252 0.0126-0.0442 0.0126-0.0189 0.0442-0.0284 0.0315-0.0126 0.0852-0.0189 0.0536-9e-3 0.12935-9e-3 0.0789 0 0.12936 9e-3 0.0536 6e-3 0.0852 0.0189 0.0315 9e-3 0.0442 0.0284 0.0126 0.0189 0.0126 0.0442v1.6343h1.8583v-1.6343q0-0.0252 0.0126-0.0442 0.0126-0.0189 0.0442-0.0284 0.0315-0.0126 0.082-0.0189 0.0505-9e-3 0.1325-9e-3 0.0757 0 0.1262 9e-3 0.0536 6e-3 0.0852 0.0189 0.0315 9e-3 0.0442 0.0284 0.0126 0.0189 0.0126 0.0442z"/>
   <path d="m122.13 137.08q0 0.12305-0.0631 0.17668-0.0599 0.0505-0.13882 0.0505h-1.8614q0 0.23663 0.0473 0.42592 0.0473 0.1893 0.15775 0.32497 0.11042 0.13566 0.2871 0.20823 0.17668 0.0726 0.43223 0.0726 0.20192 0 0.35967-0.0316 0.15775-0.0347 0.27133-0.0757 0.11673-0.041 0.1893-0.0726 0.0757-0.0347 0.11358-0.0347 0.0221 0 0.0379 0.0126 0.0189 9e-3 0.0284 0.0315 9e-3 0.0221 0.0126 0.0631 6e-3 0.0379 6e-3 0.0946 0 0.041-3e-3 0.0726-3e-3 0.0284-9e-3 0.0536-3e-3 0.0221-0.0158 0.041-9e-3 0.0189-0.0284 0.0379-0.0158 0.0158-0.10096 0.0568-0.0852 0.0379-0.22084 0.0757-0.13567 0.0379-0.3155 0.0662-0.17668 0.0316-0.3786 0.0316-0.3502 0-0.61522-0.0978-0.26187-0.0978-0.4417-0.29026t-0.27133-0.48272q-0.0915-0.29025-0.0915-0.67516 0-0.36598 0.0946-0.65624 0.0947-0.29341 0.27132-0.49533 0.17984-0.20508 0.43224-0.31235 0.2524-0.11042 0.56474-0.11042 0.33443 0 0.5679 0.10727 0.23662 0.10727 0.38806 0.29026 0.15144 0.17983 0.22085 0.42592 0.0726 0.24293 0.0726 0.52057zm-0.52372-0.15459q9e-3 -0.41015-0.18299-0.64362-0.1893-0.23347-0.56475-0.23347-0.19245 0-0.33758 0.0726t-0.24293 0.19245q-0.0978 0.11989-0.15144 0.2808-0.0536 0.15774-0.06 0.33127z"/>
   <path d="m125.18 138.63q0 0.0221-0.0126 0.041t-0.041 0.0316q-0.0284 9e-3 -0.0789 0.0158-0.0505 6e-3 -0.1262 6e-3t-0.1262-6e-3 -0.082-0.0158q-0.0315-0.0126-0.0442-0.0316-0.0126-0.0189-0.0126-0.041v-1.6343q0-0.12304 6e-3 -0.24924 6e-3 -0.12935 0.0158-0.2524-0.0726 0.1262-0.16091 0.24924-0.0852 0.11989-0.17352 0.23978l-1.2052 1.6469q-0.0221 0.0252-0.041 0.0442-0.0158 0.0189-0.0442 0.0315-0.0252 9e-3 -0.0663 0.0126-0.041 6e-3 -0.10096 6e-3 -0.0694 0-0.11357-6e-3 -0.0442-6e-3 -0.0726-0.0158-0.0252-0.0126-0.0379-0.0316-9e-3 -0.0189-9e-3 -0.041v-2.8458q0-0.0221 9e-3 -0.041 0.0126-0.0189 0.041-0.0316 0.0316-0.0126 0.082-0.0158 0.0505-6e-3 0.12304-6e-3 0.15144 0 0.20823 0.0252 0.0568 0.0221 0.0568 0.0694v1.6438q0 0.12304-6e-3 0.24609-6e-3 0.11988-0.0158 0.23977 0.0726-0.11989 0.14513-0.23346 0.0757-0.11674 0.16091-0.22716l1.221-1.669q0.0189-0.0252 0.0379-0.0442 0.0221-0.0189 0.0505-0.0284 0.0316-0.0126 0.0726-0.0158 0.041-6e-3 0.10727-6e-3 0.0662 0 0.11042 6e-3 0.0473 3e-3 0.0726 0.0158 0.0284 0.0126 0.0379 0.0316 0.0126 0.0189 0.0126 0.0442z"/>
   <path d="m127.85 137.84q0 0.21454-0.0852 0.38491t-0.24608 0.29341q-0.15775 0.11989-0.38807 0.18299-0.23031 0.0631-0.52372 0.0631-0.16406 0-0.30919-0.0252-0.14198-0.0221-0.26187-0.0568-0.11673-0.0379-0.19876-0.0789-0.0789-0.0442-0.11358-0.0726-0.0315-0.0284-0.0473-0.0505-0.0158-0.0252-0.0221-0.0536-6e-3 -0.0284-0.0126-0.0694-3e-3 -0.041-3e-3 -0.0978 0-0.0505 6e-3 -0.0852t0.0158-0.0568q9e-3 -0.0221 0.0221-0.0315 0.0126-0.0126 0.0347-0.0126 0.0347 0 0.0947 0.0442 0.0631 0.041 0.16721 0.0947 0.10412 0.0505 0.25556 0.0947 0.15459 0.0442 0.3786 0.0442 0.15774 0 0.28394-0.0316 0.1262-0.0347 0.21454-0.0978 0.0883-0.0662 0.13567-0.16406 0.0505-0.0978 0.0505-0.22716 0-0.11042-0.0473-0.19876-0.0473-0.0883-0.14828-0.14828-0.10096-0.0631-0.25871-0.0978t-0.38175-0.0347h-0.3155q-0.0315 0-0.0505-9e-3 -0.0189-0.0126-0.0347-0.0347-0.0126-0.0252-0.0189-0.0631-3e-3 -0.041-3e-3 -0.0947 0-0.0505 6e-3 -0.0883 6e-3 -0.0379 0.0189-0.06 0.0126-0.0221 0.0315-0.0315 0.0189-0.0126 0.0473-0.0126h0.30604q0.19876 0 0.34073-0.0316 0.14513-0.0316 0.23978-0.0915 0.0978-0.0631 0.14198-0.15144 0.0473-0.0915 0.0473-0.20823 0-0.10411-0.0442-0.18299-0.0442-0.0789-0.11989-0.12935-0.0726-0.0536-0.17983-0.0789-0.10727-0.0284-0.23031-0.0284-0.19246 0-0.3439 0.0442-0.14828 0.0442-0.25871 0.0978-0.10727 0.0505-0.17668 0.0947-0.0694 0.041-0.0978 0.041-0.0158 0-0.0316-6e-3 -0.0126-9e-3 -0.0252-0.0284-9e-3 -0.0221-0.0158-0.0568-3e-3 -0.0379-3e-3 -0.0883 0-0.0915 0.0126-0.14513 0.0158-0.0536 0.0536-0.0915 0.0379-0.0379 0.13251-0.0883 0.0946-0.0505 0.22085-0.0883 0.12936-0.041 0.27764-0.0662 0.15144-0.0284 0.30919-0.0284 0.23031 0 0.42277 0.0505 0.19245 0.0473 0.32812 0.14828 0.13882 0.0978 0.21454 0.24609 0.0757 0.14513 0.0757 0.34074 0 0.11674-0.0378 0.22401-0.0379 0.10411-0.11043 0.19245-0.0694 0.0883-0.17352 0.15775-0.10412 0.0694-0.23032 0.10727l-6e-3 3e-3q0.12305 0.0126 0.24294 0.0726 0.11989 0.0568 0.21454 0.15144 0.0946 0.0915 0.15143 0.22085 0.06 0.1262 0.06 0.28079z"/>
   <path d="m130.69 137.81q0 0.224-0.0852 0.40068-0.0852 0.17353-0.2524 0.29342-0.16722 0.11673-0.41646 0.17983-0.24924 0.0599-0.58052 0.0599-0.10411 0-0.20192-3e-3 -0.0978 0-0.1893-6e-3 -0.0915-3e-3 -0.18298-9e-3 -0.0883-6e-3 -0.17668-0.0158-0.1262-0.0158-0.18615-0.082-0.0599-0.0694-0.0599-0.20192v-2.4451q0-0.12936 0.0568-0.19877 0.0599-0.0694 0.17983-0.082 0.082-9e-3 0.17353-0.0158 0.0947-6e-3 0.19245-9e-3 0.0978-6e-3 0.20192-9e-3 0.10411-3e-3 0.21138-3e-3 0.30604 0 0.53004 0.0505t0.37229 0.14829q0.14828 0.0978 0.21769 0.23978 0.0726 0.14197 0.0726 0.32496 0 0.23978-0.12936 0.41015-0.1262 0.17037-0.37544 0.24293 0.31234 0.0663 0.47009 0.25556 0.15775 0.1893 0.15775 0.4764zm-0.62784-1.3188q0-0.10412-0.0379-0.18615-0.0379-0.082-0.1262-0.13882-0.0852-0.0568-0.224-0.0852-0.13567-0.0284-0.33128-0.0284-0.14828 0-0.27133 9e-3 -0.12304 6e-3 -0.20822 0.0158v0.8834h0.53003q0.32497 0 0.49534-0.11989 0.17352-0.12305 0.17352-0.3502zm0.0947 1.3282q0-0.12619-0.0442-0.22084-0.0442-0.0978-0.14198-0.16091-0.0946-0.0631-0.24608-0.0947-0.14829-0.0316-0.35336-0.0316h-0.50795v1.0064q0.0599 9e-3 0.12304 0.0158 0.0662 3e-3 0.13251 9e-3 0.0694 3e-3 0.13566 6e-3 0.0694 3e-3 0.1262 3e-3 0.20508 0 0.35021-0.0347 0.14513-0.0379 0.23977-0.10727 0.0978-0.0694 0.14198-0.16721 0.0442-0.10096 0.0442-0.22401z"/>
   <path d="m133.61 137.08q0 0.12305-0.0631 0.17668-0.06 0.0505-0.13882 0.0505h-1.8614q0 0.23663 0.0473 0.42592 0.0473 0.1893 0.15775 0.32497 0.11042 0.13566 0.2871 0.20823 0.17668 0.0726 0.43224 0.0726 0.20191 0 0.35966-0.0316 0.15775-0.0347 0.27133-0.0757 0.11674-0.041 0.1893-0.0726 0.0757-0.0347 0.11358-0.0347 0.0221 0 0.0379 0.0126 0.0189 9e-3 0.0284 0.0315 9e-3 0.0221 0.0126 0.0631 6e-3 0.0379 6e-3 0.0946 0 0.041-3e-3 0.0726-3e-3 0.0284-9e-3 0.0536-3e-3 0.0221-0.0158 0.041-9e-3 0.0189-0.0284 0.0379-0.0158 0.0158-0.10096 0.0568-0.0852 0.0379-0.22085 0.0757-0.13567 0.0379-0.3155 0.0662-0.17668 0.0316-0.3786 0.0316-0.3502 0-0.61522-0.0978-0.26186-0.0978-0.4417-0.29026-0.17983-0.19246-0.27133-0.48272-0.0915-0.29025-0.0915-0.67516 0-0.36598 0.0947-0.65624 0.0947-0.29341 0.27133-0.49533 0.17983-0.20508 0.43223-0.31235 0.2524-0.11042 0.56474-0.11042 0.33443 0 0.5679 0.10727 0.23662 0.10727 0.38806 0.29026 0.15144 0.17983 0.22085 0.42592 0.0726 0.24293 0.0726 0.52057zm-0.52372-0.15459q9e-3 -0.41015-0.18299-0.64362-0.1893-0.23347-0.56474-0.23347-0.19246 0-0.33759 0.0726t-0.24293 0.19245q-0.0978 0.11989-0.15144 0.2808-0.0536 0.15774-0.0599 0.33127z"/>
   <path d="m136.18 138.19q0 0.0536-3e-3 0.0946-3e-3 0.0379-0.0126 0.0663-6e-3 0.0252-0.0189 0.0473-9e-3 0.0189-0.0505 0.0599-0.0379 0.0379-0.13251 0.0978-0.0947 0.0568-0.21454 0.10411-0.11673 0.0442-0.25555 0.0726t-0.28711 0.0284q-0.30603 0-0.54265-0.10096-0.23663-0.10096-0.39753-0.29341-0.15775-0.19561-0.24293-0.47641-0.082-0.28394-0.082-0.65308 0-0.41961 0.10096-0.71933 0.10411-0.30288 0.28079-0.49534 0.17983-0.19245 0.41961-0.28395 0.24294-0.0946 0.52373-0.0946 0.13566 0 0.26186 0.0252 0.12936 0.0252 0.23663 0.0662t0.1893 0.0947q0.0852 0.0536 0.12304 0.0915 0.0379 0.0379 0.0505 0.06 0.0158 0.0221 0.0252 0.0536 9e-3 0.0284 0.0126 0.0663 3e-3 0.0379 3e-3 0.0947 0 0.12304-0.0284 0.17352-0.0284 0.0473-0.0694 0.0473-0.0473 0-0.11042-0.0505-0.0599-0.0536-0.1546-0.11674-0.0947-0.0631-0.23031-0.11358-0.13251-0.0536-0.3155-0.0536-0.37544 0-0.57736 0.29026-0.19877 0.2871-0.19877 0.83607 0 0.27448 0.0505 0.48271 0.0536 0.20507 0.1546 0.34389 0.10096 0.13882 0.24609 0.20823 0.14828 0.0663 0.33758 0.0663 0.17983 0 0.3155-0.0568 0.13566-0.0568 0.23347-0.12305 0.10096-0.0694 0.16721-0.12304 0.0694-0.0568 0.10727-0.0568 0.0221 0 0.0379 0.0126t0.0252 0.0442q0.0126 0.0284 0.0158 0.0757 6e-3 0.0442 6e-3 0.10727z"/>
   <path d="m138.6 135.94q0 0.0631-6e-3 0.10727-6e-3 0.0442-0.0221 0.0726-0.0126 0.0284-0.0316 0.0442-0.0189 0.0126-0.0473 0.0126h-0.85184v2.4483q0 0.0252-0.0126 0.0442-0.0126 0.0158-0.041 0.0284t-0.0789 0.0189q-0.0505 6e-3 -0.12936 6e-3 -0.0757 0-0.1262-6e-3t-0.082-0.0189q-0.0284-0.0126-0.041-0.0284-9e-3 -0.0189-9e-3 -0.0442v-2.4483h-0.85184q-0.0252 0-0.0473-0.0126-0.0189-0.0158-0.0316-0.0442-0.0126-0.0284-0.0221-0.0726-6e-3 -0.0473-6e-3 -0.11043 0-0.0568 6e-3 -0.10096 9e-3 -0.0442 0.0221-0.0726 0.0158-0.0315 0.0347-0.0442 0.0189-0.0158 0.0442-0.0158h2.2243q0.0252 0 0.0442 0.0158 0.0221 0.0126 0.0347 0.0442 0.0126 0.0284 0.0189 0.0757 9e-3 0.0442 9e-3 0.10096z"/>
   <path d="m141.34 138.63q0 0.0252-0.0126 0.0442-0.0126 0.0158-0.041 0.0284t-0.0789 0.0189q-0.0505 6e-3 -0.1262 6e-3 -0.0789 0-0.12935-6e-3 -0.0505-6e-3 -0.0789-0.0189-0.0284-0.0126-0.041-0.0284-0.0126-0.0189-0.0126-0.0442v-1.2462h-1.4481v1.2462q0 0.0252-0.0126 0.0442-0.0126 0.0158-0.041 0.0284t-0.0789 0.0189q-0.0505 6e-3 -0.12935 6e-3 -0.0757 0-0.1262-6e-3t-0.082-0.0189q-0.0284-0.0126-0.041-0.0284-9e-3 -0.0189-9e-3 -0.0442v-2.8395q0-0.0252 9e-3 -0.041 0.0126-0.0189 0.041-0.0316 0.0315-0.0158 0.082-0.0189 0.0505-6e-3 0.1262-6e-3 0.0789 0 0.12935 6e-3 0.0505 3e-3 0.0789 0.0189 0.0284 0.0126 0.041 0.0316 0.0126 0.0158 0.0126 0.041v1.1547h1.4481v-1.1547q0-0.0252 0.0126-0.041 0.0126-0.0189 0.041-0.0316 0.0284-0.0158 0.0789-0.0189 0.0505-6e-3 0.12935-6e-3 0.0757 0 0.1262 6e-3 0.0505 3e-3 0.0789 0.0189 0.0284 0.0126 0.041 0.0316 0.0126 0.0158 0.0126 0.041z"/>
   <path d="m145.38 138.63q0 0.0252-0.0126 0.0442-0.0126 0.0158-0.041 0.0284t-0.0789 0.0189q-0.0505 6e-3 -0.12935 6e-3 -0.0757 0-0.1262-6e-3t-0.082-0.0189q-0.0284-0.0126-0.041-0.0284-9e-3 -0.0189-9e-3 -0.0442v-2.8395q0-0.0252 9e-3 -0.041 0.0126-0.0189 0.041-0.0316 0.0316-0.0158 0.082-0.0189 0.0505-6e-3 0.1262-6e-3 0.0789 0 0.12935 6e-3 0.0505 3e-3 0.0789 0.0189 0.0284 0.0126 0.041 0.0316 0.0126 0.0158 0.0126 0.041zm-2.8174-1.8394q0.11673-9e-3 0.23347-0.0126 0.11989-6e-3 0.25871-6e-3 0.33758 0 0.57736 0.0694 0.23978 0.0663 0.39437 0.19246 0.15775 0.1262 0.23031 0.30288 0.0726 0.17352 0.0726 0.39121 0 0.2177-0.0789 0.407-0.0757 0.1893-0.24293 0.32812-0.16406 0.13882-0.42277 0.22085-0.25871 0.0789-0.62153 0.0789-0.0852 0-0.17037-3e-3 -0.0852 0-0.16721-6e-3 -0.082-3e-3 -0.16406-9e-3 -0.0789-6e-3 -0.16091-0.0158-0.1325-0.0158-0.1956-0.0852t-0.0631-0.21138v-2.6407q0-0.0252 9e-3 -0.041 0.0126-0.0189 0.041-0.0316 0.0316-0.0158 0.0789-0.0189 0.0505-6e-3 0.12304-6e-3 0.15144 0 0.20823 0.0252 0.0599 0.0221 0.0599 0.0726zm1.2241 0.97174q0-0.12935-0.041-0.23347-0.0379-0.10727-0.12936-0.17983-0.0883-0.0757-0.23662-0.11358-0.14829-0.041-0.36282-0.041-0.12936 0-0.23978 6e-3 -0.11043 6e-3 -0.21454 0.0158v1.0916q0.11042 0.0126 0.21769 0.0221 0.10727 9e-3 0.26187 9e-3 0.3849 0 0.56474-0.15144 0.17983-0.15459 0.17983-0.42592z"/>
   <path d="m148.61 138.63q0 0.0221-0.0126 0.041t-0.041 0.0316q-0.0284 9e-3 -0.0789 0.0158-0.0505 6e-3 -0.1262 6e-3t-0.1262-6e-3 -0.082-0.0158q-0.0316-0.0126-0.0442-0.0316-0.0126-0.0189-0.0126-0.041v-1.6343q0-0.12304 6e-3 -0.24924 6e-3 -0.12935 0.0158-0.2524-0.0726 0.1262-0.1609 0.24924-0.0852 0.11989-0.17353 0.23978l-1.2052 1.6469q-0.0221 0.0252-0.041 0.0442-0.0158 0.0189-0.0442 0.0315-0.0252 9e-3 -0.0662 0.0126-0.041 6e-3 -0.10096 6e-3 -0.0694 0-0.11358-6e-3 -0.0442-6e-3 -0.0726-0.0158-0.0252-0.0126-0.0379-0.0316-9e-3 -0.0189-9e-3 -0.041v-2.8458q0-0.0221 9e-3 -0.041 0.0126-0.0189 0.041-0.0316 0.0315-0.0126 0.082-0.0158 0.0505-6e-3 0.12304-6e-3 0.15144 0 0.20823 0.0252 0.0568 0.0221 0.0568 0.0694v1.6438q0 0.12304-6e-3 0.24609-6e-3 0.11988-0.0158 0.23977 0.0726-0.11989 0.14513-0.23346 0.0757-0.11674 0.1609-0.22716l1.221-1.669q0.0189-0.0252 0.0379-0.0442 0.0221-0.0189 0.0505-0.0284 0.0316-0.0126 0.0726-0.0158 0.041-6e-3 0.10727-6e-3 0.0663 0 0.11043 6e-3 0.0473 3e-3 0.0726 0.0158 0.0284 0.0126 0.0379 0.0316 0.0126 0.0189 0.0126 0.0442zm-0.27764-4.1835q0 0.17983-0.0536 0.33758t-0.17037 0.27764q-0.11673 0.11673-0.29972 0.18614-0.18299 0.0663-0.44486 0.0663-0.23977 0-0.42276-0.06-0.17984-0.0599-0.30288-0.17037-0.11989-0.11358-0.18299-0.27448-0.06-0.1609-0.06-0.36282 0-0.0316 9e-3 -0.0536 0.0126-0.0221 0.041-0.0347 0.0315-0.0126 0.0789-0.0189 0.0505-6e-3 0.11989-6e-3 0.0757 0 0.11989 9e-3 0.0442 6e-3 0.0662 0.0221 0.0252 0.0158 0.0316 0.041 9e-3 0.0252 9e-3 0.0599 0 0.10096 0.0315 0.18614 0.0316 0.0852 0.0947 0.14828 0.0662 0.0631 0.15775 0.0978 0.0915 0.0347 0.21138 0.0347 0.11673 0 0.20507-0.0347 0.0915-0.0347 0.1546-0.0978t0.0947-0.15143q0.0316-0.0883 0.0316-0.1893 0-0.0316 6e-3 -0.0536 9e-3 -0.0252 0.0316-0.041 0.0252-0.0158 0.0662-0.0221 0.0442-9e-3 0.11674-9e-3 0.0757 0 0.12304 6e-3 0.0505 6e-3 0.0789 0.0189 0.0316 0.0126 0.0442 0.0347t0.0126 0.0536z"/>
  </g>
 </g>
</svg>
